<svg width="22" height="22" viewBox="0 0 22 22" fill="none" xmlns="http://www.w3.org/2000/svg">
<path d="M11 13.75C12.5188 13.75 13.75 12.5188 13.75 11C13.75 9.48122 12.5188 8.25 11 8.25C9.48122 8.25 8.25 9.48122 8.25 11C8.25 12.5188 9.48122 13.75 11 13.75Z" fill="url(#paint0_linear_3_1650)"/>
<path d="M7.83284 7.69497L6.56371 6.37085C5.34546 7.53868 4.58325 9.17906 4.58325 11C4.58325 12.821 5.34546 14.4613 6.56371 15.6292L7.83284 14.3051C6.962 13.47 6.41659 12.2985 6.41659 11C6.41659 9.70156 6.962 8.5296 7.83284 7.69497Z" fill="url(#paint1_linear_3_1650)"/>
<path d="M15.4361 6.37085L14.167 7.69497C15.0378 8.53006 15.5832 9.70156 15.5832 11C15.5832 12.2985 15.0378 13.47 14.167 14.3051L15.4361 15.6292C16.6544 14.4613 17.4166 12.821 17.4166 11C17.4166 9.17906 16.6544 7.53868 15.4361 6.37085Z" fill="url(#paint2_linear_3_1650)"/>
<path d="M5.29887 5.05133L4.02516 3.72217C2.11071 5.55733 0.916748 8.13867 0.916748 11C0.916748 13.8614 2.11071 16.4428 4.02516 18.2779L5.29887 16.9488C3.73183 15.4463 2.75008 13.3375 2.75008 11C2.75008 8.66254 3.73183 6.55375 5.29887 5.05133Z" fill="url(#paint3_linear_3_1650)"/>
<path d="M17.9749 3.72217L16.7012 5.05133C18.2682 6.55375 19.25 8.66254 19.25 11C19.25 13.3375 18.2682 15.4463 16.7012 16.9488L17.9749 18.2779C19.8893 16.4428 21.0833 13.8614 21.0833 11C21.0833 8.13867 19.8893 5.55733 17.9749 3.72217Z" fill="url(#paint4_linear_3_1650)"/>
<defs>
<linearGradient id="paint0_linear_3_1650" x1="8.46359" y1="12.2768" x2="13.4533" y2="11.9744" gradientUnits="userSpaceOnUse">
<stop stop-color="#24FF00"/>
<stop offset="1" stop-color="#7BFFB0"/>
</linearGradient>
<linearGradient id="paint1_linear_3_1650" x1="4.70945" y1="13.1493" x2="7.66703" y2="13.0864" gradientUnits="userSpaceOnUse">
<stop stop-color="#24FF00"/>
<stop offset="1" stop-color="#7BFFB0"/>
</linearGradient>
<linearGradient id="paint2_linear_3_1650" x1="14.2932" y1="13.1493" x2="17.2508" y2="13.0864" gradientUnits="userSpaceOnUse">
<stop stop-color="#24FF00"/>
<stop offset="1" stop-color="#7BFFB0"/>
</linearGradient>
<linearGradient id="paint3_linear_3_1650" x1="1.08693" y1="14.3791" x2="5.07576" y2="14.3063" gradientUnits="userSpaceOnUse">
<stop stop-color="#24FF00"/>
<stop offset="1" stop-color="#7BFFB0"/>
</linearGradient>
<linearGradient id="paint4_linear_3_1650" x1="16.8714" y1="14.3791" x2="20.8602" y2="14.3063" gradientUnits="userSpaceOnUse">
<stop stop-color="#24FF00"/>
<stop offset="1" stop-color="#7BFFB0"/>
</linearGradient>
</defs>
</svg>
